<!-- schelling1971 hero. Vault SVG style contract (palette + dark mode). -->
<svg width="100%" viewBox="0 0 900 300" xmlns="http://www.w3.org/2000/svg" role="img">
<title>Schelling 1971 — Dynamic Models of Segregation</title>
<desc>An initially mixed checkerboard of two groups self-organises into segregated clusters under mild same-neighbour preferences.</desc>
<style>
  .t  { font-family: -apple-system, "Helvetica Neue", "Hiragino Sans", sans-serif; font-size: 14px; fill: #2C2C2A; }
  .ts { font-family: -apple-system, "Helvetica Neue", "Hiragino Sans", sans-serif; font-size: 13px; fill: #444441; }
  .tl { font-family: -apple-system, "Helvetica Neue", "Hiragino Sans", sans-serif; font-size: 12px; font-weight: 600; fill: #534AB7; letter-spacing: 2px; }
  .title { font-family: -apple-system, "Helvetica Neue", "Hiragino Sans", sans-serif; font-size: 30px; font-weight: 600; fill: #2C2C2A; }
  .glab { font-family: -apple-system, "Helvetica Neue", "Hiragino Sans", sans-serif; font-size: 11px; font-weight: 500; fill: #888780; letter-spacing: 0.5px; }
  .teal-fill   { fill: #E1F5EE; stroke: #0F6E56; stroke-width: 0.6; }
  .purple-fill { fill: #EEEDFE; stroke: #534AB7; stroke-width: 0.6; }
  .gray-fill   { fill: #F1EFE8; stroke: #C7C5BD; stroke-width: 0.6; }
  .arrd { stroke: #534AB7; stroke-width: 1.6; fill: none; }
  @media (prefers-color-scheme: dark) {
    .t  { fill: #E5E5E2; }
    .ts { fill: #C7C5BD; }
    .tl { fill: #AFA9EC; }
    .title { fill: #E5E5E2; }
    .glab { fill: #8C8B85; }
    .teal-fill   { fill: #0F6E56; stroke: #5DCAA5; }
    .purple-fill { fill: #534AB7; stroke: #AFA9EC; }
    .gray-fill   { fill: #3A3A37; stroke: #5F5E5A; }
    .arrd { stroke: #AFA9EC; }
  }
</style>
<defs>
<marker id="arrowAccent" viewBox="0 0 10 10" refX="8" refY="5" markerWidth="7" markerHeight="7" orient="auto-start-reverse">
  <path d="M2 1L8 5L2 9" fill="none" stroke="#534AB7" stroke-width="1.6" stroke-linecap="round" stroke-linejoin="round"/>
</marker>
</defs>

<!-- title block -->
<text class="tl" x="44" y="96">SCHELLING · 1971</text>
<text class="title" x="42" y="140">Dynamic Models</text>
<text class="title" x="42" y="178">of Segregation</text>
<text class="ts" x="44" y="212">Agent-based &amp; analytic replication in Rust</text>

<!-- transition arrow (mixed -> segregated) -->
<path d="M632 132 H688" class="arrd" marker-end="url(#arrowAccent)"/>

<!-- left grid: mixed start -->
<rect class="teal-fill" x="500" y="70" width="22" height="22" rx="3"/>
<rect class="purple-fill" x="525" y="70" width="22" height="22" rx="3"/>
<rect class="gray-fill" x="550" y="70" width="22" height="22" rx="3"/>
<rect class="teal-fill" x="575" y="70" width="22" height="22" rx="3"/>
<rect class="purple-fill" x="600" y="70" width="22" height="22" rx="3"/>
<rect class="purple-fill" x="500" y="95" width="22" height="22" rx="3"/>
<rect class="teal-fill" x="525" y="95" width="22" height="22" rx="3"/>
<rect class="purple-fill" x="550" y="95" width="22" height="22" rx="3"/>
<rect class="gray-fill" x="575" y="95" width="22" height="22" rx="3"/>
<rect class="teal-fill" x="600" y="95" width="22" height="22" rx="3"/>
<rect class="gray-fill" x="500" y="120" width="22" height="22" rx="3"/>
<rect class="purple-fill" x="525" y="120" width="22" height="22" rx="3"/>
<rect class="teal-fill" x="550" y="120" width="22" height="22" rx="3"/>
<rect class="purple-fill" x="575" y="120" width="22" height="22" rx="3"/>
<rect class="gray-fill" x="600" y="120" width="22" height="22" rx="3"/>
<rect class="teal-fill" x="500" y="145" width="22" height="22" rx="3"/>
<rect class="gray-fill" x="525" y="145" width="22" height="22" rx="3"/>
<rect class="purple-fill" x="550" y="145" width="22" height="22" rx="3"/>
<rect class="teal-fill" x="575" y="145" width="22" height="22" rx="3"/>
<rect class="purple-fill" x="600" y="145" width="22" height="22" rx="3"/>
<rect class="purple-fill" x="500" y="170" width="22" height="22" rx="3"/>
<rect class="teal-fill" x="525" y="170" width="22" height="22" rx="3"/>
<rect class="gray-fill" x="550" y="170" width="22" height="22" rx="3"/>
<rect class="purple-fill" x="575" y="170" width="22" height="22" rx="3"/>
<rect class="teal-fill" x="600" y="170" width="22" height="22" rx="3"/>
<text class="glab" x="500" y="210">mixed start</text>

<!-- right grid: segregated outcome -->
<rect class="teal-fill" x="700" y="70" width="22" height="22" rx="3"/>
<rect class="teal-fill" x="725" y="70" width="22" height="22" rx="3"/>
<rect class="teal-fill" x="750" y="70" width="22" height="22" rx="3"/>
<rect class="purple-fill" x="775" y="70" width="22" height="22" rx="3"/>
<rect class="purple-fill" x="800" y="70" width="22" height="22" rx="3"/>
<rect class="teal-fill" x="700" y="95" width="22" height="22" rx="3"/>
<rect class="teal-fill" x="725" y="95" width="22" height="22" rx="3"/>
<rect class="purple-fill" x="750" y="95" width="22" height="22" rx="3"/>
<rect class="purple-fill" x="775" y="95" width="22" height="22" rx="3"/>
<rect class="purple-fill" x="800" y="95" width="22" height="22" rx="3"/>
<rect class="teal-fill" x="700" y="120" width="22" height="22" rx="3"/>
<rect class="teal-fill" x="725" y="120" width="22" height="22" rx="3"/>
<rect class="gray-fill" x="750" y="120" width="22" height="22" rx="3"/>
<rect class="purple-fill" x="775" y="120" width="22" height="22" rx="3"/>
<rect class="purple-fill" x="800" y="120" width="22" height="22" rx="3"/>
<rect class="teal-fill" x="700" y="145" width="22" height="22" rx="3"/>
<rect class="gray-fill" x="725" y="145" width="22" height="22" rx="3"/>
<rect class="purple-fill" x="750" y="145" width="22" height="22" rx="3"/>
<rect class="purple-fill" x="775" y="145" width="22" height="22" rx="3"/>
<rect class="purple-fill" x="800" y="145" width="22" height="22" rx="3"/>
<rect class="teal-fill" x="700" y="170" width="22" height="22" rx="3"/>
<rect class="teal-fill" x="725" y="170" width="22" height="22" rx="3"/>
<rect class="purple-fill" x="750" y="170" width="22" height="22" rx="3"/>
<rect class="purple-fill" x="775" y="170" width="22" height="22" rx="3"/>
<rect class="purple-fill" x="800" y="170" width="22" height="22" rx="3"/>
<text class="glab" x="700" y="210">segregated</text>
</svg>
